<?xml version="1.0" encoding="UTF-8"?><svg id="a" xmlns="http://www.w3.org/2000/svg" width="113.55mm" height="174.28mm" xmlns:xlink="http://www.w3.org/1999/xlink" viewBox="0 0 321.86 494.02"><defs><clipPath id="b"><rect x="-8.2" y="8.55" width="330.06" height="483.33" fill="none"/></clipPath></defs><g clip-path="url(#b)"><path d="M179.68,199.56l17.37.11-15.61,8.03c-2.58,1.34-3.29,4.71-1.48,6.98h0c1.81,2.27,5.25,2.33,7.14.11l10.79-13.36-3.33,17.05c-.56,2.85,1.63,5.51,4.54,5.51h0c2.91,0,5.09-2.65,4.54-5.51l-3.18-16.28,10.72,12.75c1.88,2.22,5.32,2.16,7.14-.11h0c1.81-2.27,1.1-5.64-1.48-6.98l-15.6-7.64,17.54-.46c2.91-.09,5.01-2.81,4.36-5.65h0c-.65-2.84-3.72-4.38-6.38-3.2l-15.7,7.43,10.58-14c1.74-2.33.92-5.67-1.7-6.93h0c-2.62-1.26-5.74.18-6.48,3l-3.97,16.91-4.35-17c-.74-2.81-3.86-4.26-6.48-3h0c-2.62,1.26-3.44,4.6-1.7,6.93l10.74,13.65-16.01-7.2c-2.66-1.18-5.73.36-6.38,3.2h0c-.65,2.84,1.45,5.56,4.36,5.65Z" fill="#f3a009"/><path d="M192.67,98.6l.77,1.05c5.77,7.89,15.03,12.18,24.79,11.49l1.3-.09-1.05.77c-7.89,5.77-12.18,15.04-11.49,24.79l.09,1.3-.77-1.05c-5.77-7.89-15.03-12.17-24.79-11.49l-1.3.09,1.05-.77c7.89-5.77,12.18-15.04,11.49-24.79l-.09-1.3ZM215.85,111.97c-8.7-.1-16.82-4.06-22.28-10.9.27,9.16-3.73,17.79-10.89,23.49,9.16-.26,17.79,3.73,23.49,10.89-.27-9.16,3.73-17.79,10.89-23.49-.41.01-.81.02-1.22.01Z" fill="#f3a009"/><path d="M55.92,125.54l-.29,1.27c-1.33,5.73.35,11.63,4.49,15.8l.92.92-1.27-.29c-5.73-1.33-11.63.35-15.8,4.49l-.92.92.29-1.27c1.33-5.73-.35-11.63-4.49-15.8l-.92-.92,1.27.29c5.73,1.33,11.63-.35,15.8-4.49l.92-.92ZM58.79,142.29c-3.48-3.99-4.98-9.27-4.12-14.5-3.99,3.48-9.27,4.98-14.5,4.12,3.48,3.99,4.98,9.27,4.12,14.5,3.99-3.48,9.27-4.98,14.5-4.12Z" fill="#f3a009"/><path d="M247.61,107.66c-11.69,0-23.05,1.44-33.92,4.13.76-.07,1.53-.12,2.31-.12.47,0,.84.13,1.14.34,9.81-2.19,20.01-3.35,30.47-3.35,77.22,0,140.04,62.82,140.04,140.04s-62.82,140.04-140.04,140.04-140.04-62.82-140.04-140.04c0-53.57,30.25-100.19,74.55-123.73.19-.66.69-1.21,1.49-1.35.32-.45.7-.83,1.14-1.15-46.3,23.15-78.18,71.03-78.18,126.23,0,77.77,63.27,141.04,141.04,141.04s141.04-63.27,141.04-141.04-63.27-141.04-141.04-141.04Z" fill="#f3a009"/><path d="M409.03,87.28c-43.12-43.12-100.45-66.86-161.42-66.86s-118.31,23.75-161.42,66.86c-12.71,12.71-23.73,26.67-32.96,41.58.04-.02.07-.04.11-.06-.11.04-.03,0,.06-.05.12-.22.29-.4.48-.56.33-.39.82-.65,1.48-.65.01,0,.02,0,.04,0C95.71,63.82,166.79,21.41,247.61,21.41c125.33,0,227.29,101.96,227.29,227.29s-101.96,227.29-227.29,227.29S20.32,374.03,20.32,248.7c0-36.41,8.63-70.84,23.92-101.39-.15-.37-.19-.79-.13-1.19,0,0,0,0-.01,0-.13-.13-.24-.29-.32-.46-15.99,31.55-24.46,66.64-24.46,103.04,0,60.98,23.75,118.31,66.86,161.42,43.12,43.12,100.45,66.86,161.42,66.86s118.31-23.75,161.42-66.86c43.12-43.12,66.86-100.45,66.86-161.42s-23.75-118.31-66.86-161.42Z" fill="#f3a009"/></g></svg>