<svg xmlns="http://www.w3.org/2000/svg" width="172.14mm" height="89.33mm" viewBox="0 0 487.96 253.22"><path d="M8.69,253.22C6.24,199,18.57,152.68,45.34,115.56,64.47,89,90.65,67.85,123.13,52.6c31.5-14.79,69-24,111.45-27.48l.14,1.7c-85.67,7-150.68,38-188,89.74C20.18,153.36,8,199.31,10.4,253.14Z" fill="#f3a009"/><path d="M487.49,59.28C429.36,42.41,374,31.68,323,27.41l.14-1.71C374.26,30,429.72,40.74,488,57.64Z" fill="#f3a009"/><path d="M280.5,0h0a25.7,25.7,0,0,1-25.71,25.7h0A25.71,25.71,0,0,1,280.5,51.41h0A25.71,25.71,0,0,1,306.2,25.7h0A25.7,25.7,0,0,1,280.5,0Z" fill="#f3a009"/></svg>