<?xml version="1.0" encoding="UTF-8"?><svg id="a" xmlns="http://www.w3.org/2000/svg" width="40.7mm" height="237.42mm" xmlns:xlink="http://www.w3.org/1999/xlink" viewBox="0 0 228.76 786.38"><defs><clipPath id="b"><rect x="-13.17" y="-911.14" width="841.89" height="595.28" fill="none"/></clipPath></defs><g clip-path="url(#b)"><path d="M1422.34-323.27c-38.3-10.94-147.16-43.71-190.23-63.63-279.42-129.15-346.52-401.16-403.39-716.57-4.92-27.29-165.17-40.8-196.37-40.8s-57.78,20.09-62.7,47.38c-56.87,315.41-257.64,580.83-537.06,709.98h0c-43.07,19.93-151.92,52.69-190.23,63.63-26.23,7.5-44.01,29.14-44,53.54,0,24.41,17.78,46.04,44.01,53.54,38.3,10.95,147.15,43.72,190.22,63.62C312-23.42,512.76,242,569.64,557.41c4.93,27.29,31.5,47.38,62.7,47.38s57.78-20.09,62.7-47.38C751.92,242,952.69-23.42,1232.11-152.58c43.08-19.9,151.92-52.67,190.23-63.62,26.23-7.5,44-29.13,44-53.54,0-24.4-17.77-46.04-44-53.54Z" fill="#fff"/></g><path d="M103.56,684.63l-71.3,17.75c-11.24,2.31-21.77-6.28-21.77-17.75h0c0-11.47,10.53-20.06,21.77-17.75l71.3,17.75Z" fill="#f3a009"/><path d="M108.4,693l-20.27,70.62c-3.62,10.89-16.32,15.71-26.26,9.97h0c-9.94-5.74-12.11-19.15-4.49-27.73l51.02-52.87Z" fill="#f3a009"/><path d="M118.06,693l51.03,52.87c7.62,8.58,5.45,21.99-4.49,27.73h0c-9.94,5.74-22.64.91-26.26-9.97l-20.27-70.62Z" fill="#f3a009"/><path d="M122.89,684.63l71.3-17.75c11.24-2.31,21.77,6.28,21.77,17.75h0c0,11.47-10.53,20.06-21.77,17.75l-71.3-17.75Z" fill="#f3a009"/><path d="M118.06,676.26l20.27-70.62c3.62-10.89,16.32-15.71,26.26-9.98h0c9.94,5.74,12.11,19.15,4.49,27.73l-51.03,52.87Z" fill="#f3a009"/><path d="M108.4,676.26l-51.02-52.87c-7.62-8.58-5.45-21.99,4.49-27.73h0c9.94-5.74,22.64-.91,26.26,9.98l20.27,70.62Z" fill="#f3a009"/><path d="M103.56,393.2l-71.3,17.75c-11.24,2.31-21.77-6.28-21.77-17.75h0c0-11.47,10.53-20.06,21.77-17.75l71.3,17.75Z" fill="#f3a009"/><path d="M108.4,401.57l-20.27,70.62c-3.62,10.89-16.32,15.71-26.26,9.97h0c-9.94-5.74-12.11-19.15-4.49-27.73l51.02-52.87Z" fill="#f3a009"/><path d="M118.06,401.57l51.03,52.87c7.62,8.58,5.45,21.99-4.49,27.73h0c-9.94,5.74-22.64.91-26.26-9.97l-20.27-70.62Z" fill="#f3a009"/><path d="M122.89,393.2l71.3-17.75c11.24-2.31,21.77,6.28,21.77,17.75h0c0,11.48-10.53,20.06-21.77,17.75l-71.3-17.75Z" fill="#f3a009"/><path d="M118.06,384.84l20.27-70.62c3.62-10.89,16.32-15.71,26.26-9.98h0c9.94,5.74,12.11,19.15,4.49,27.73l-51.03,52.87Z" fill="#f3a009"/><path d="M108.4,384.84l-51.02-52.87c-7.62-8.58-5.45-21.99,4.49-27.73h0c9.94-5.74,22.64-.91,26.26,9.98l20.27,70.62Z" fill="#f3a009"/><path d="M103.56,101.78l-71.3,17.75c-11.24,2.31-21.77-6.28-21.77-17.75h0c0-11.47,10.53-20.06,21.77-17.75l71.3,17.75Z" fill="#f3a009"/><path d="M108.4,110.14l-20.27,70.62c-3.62,10.89-16.32,15.71-26.26,9.98h0c-9.94-5.74-12.11-19.15-4.49-27.73l51.02-52.87Z" fill="#f3a009"/><path d="M118.06,110.14l51.03,52.87c7.62,8.58,5.45,21.99-4.49,27.73h0c-9.94,5.74-22.64.91-26.26-9.98l-20.27-70.62Z" fill="#f3a009"/><path d="M122.89,101.78l71.3-17.75c11.24-2.31,21.77,6.28,21.77,17.75h0c0,11.48-10.53,20.06-21.77,17.75l-71.3-17.75Z" fill="#f3a009"/><path d="M118.06,93.41l20.27-70.62c3.62-10.89,16.32-15.71,26.26-9.98h0c9.94,5.74,12.11,19.15,4.49,27.73l-51.03,52.87Z" fill="#f3a009"/><path d="M108.4,93.41l-51.02-52.87c-7.62-8.58-5.45-21.99,4.49-27.73h0c9.94-5.74,22.64-.91,26.26,9.98l20.27,70.62Z" fill="#f3a009"/></svg>