<?xml version="1.0" encoding="UTF-8"?><svg id="a" xmlns="http://www.w3.org/2000/svg" width="1973.65mm" height="59.6mm" viewBox="0 0 5594.6 168.95"><path d="M5589.88,79.37c-3.24-1.04-12.43-4.17-16.07-6.07-23.61-12.32-40.57-37.63-45.38-67.71-.42-2.6-2.66-4.52-5.3-4.52s-4.88,1.92-5.3,4.52c-4.81,30.08-21.77,55.39-45.38,67.71h0c-3.64,1.9-12.84,5.03-16.07,6.07-2.22.71-3.72,2.78-3.72,5.11,0,2.33,1.5,4.39,3.72,5.11,3.24,1.04,12.43,4.17,16.07,6.07,23.61,12.32,40.57,37.63,45.38,67.71.42,2.6,2.66,4.52,5.3,4.52s4.88-1.92,5.3-4.52c4.81-30.08,21.77-55.39,45.38-67.71,3.64-1.9,12.84-5.02,16.07-6.07,2.22-.71,3.72-2.78,3.72-5.11,0-2.33-1.5-4.39-3.72-5.11Z" fill="#f3a009"/><line x1="18.66" y1="84.48" x2="5396.4" y2="84.48" fill="none" stroke="#f3a009" stroke-linecap="round" stroke-linejoin="round" stroke-width="10"/></svg>