<svg xmlns="http://www.w3.org/2000/svg" width="157.23mm" height="44.66mm" viewBox="0 0 445.7 126.61"><path d="M307.76,251.1A124.49,124.49,0,1,1,432.25,126.61,124.64,124.64,0,0,1,307.76,251.1Zm0-247.48a123,123,0,1,0,123,123A123.13,123.13,0,0,0,307.76,3.62Z" fill="#f3a009"/><path d="M251.16,251.1A124.49,124.49,0,1,1,375.65,126.61,124.64,124.64,0,0,1,251.16,251.1Zm0-247.48a123,123,0,1,0,123,123A123.13,123.13,0,0,0,251.16,3.62Z" fill="#f3a009"/><path d="M194.55,251.1A124.49,124.49,0,1,1,319,126.61,124.63,124.63,0,0,1,194.55,251.1Zm0-247.48a123,123,0,1,0,123,123A123.13,123.13,0,0,0,194.55,3.62Z" fill="#f3a009"/><path d="M137.94,251.1A124.49,124.49,0,1,1,262.43,126.61,124.63,124.63,0,0,1,137.94,251.1Zm0-247.48a123,123,0,1,0,123,123A123.13,123.13,0,0,0,137.94,3.62Z" fill="#f3a009"/></svg>