<svg xmlns="http://www.w3.org/2000/svg" width="757.23mm" height="59.6mm" viewBox="0 0 2146.47 168.95"><path d="M2141.75,79.37c-3.24-1-12.43-4.17-16.07-6.07C2102.07,61,2085.11,35.67,2080.3,5.59a5.36,5.36,0,0,0-10.59,0c-4.81,30.08-21.77,55.39-45.38,67.71h0c-3.64,1.9-12.83,5-16.07,6.07a5.36,5.36,0,0,0,0,10.21c3.24,1,12.43,4.17,16.07,6.07,23.61,12.32,40.57,37.63,45.38,67.71a5.36,5.36,0,0,0,10.59,0c4.81-30.08,21.77-55.39,45.38-67.71,3.64-1.9,12.83-5,16.07-6.07a5.36,5.36,0,0,0,0-10.21Z" fill="#f3a009"/><line x1="24" y1="84.48" x2="1948.27" y2="84.48" fill="none" stroke="#f3a009" stroke-linecap="round" stroke-linejoin="round" stroke-width="10"/></svg>