<svg xmlns="http://www.w3.org/2000/svg" width="176.39mm" height="176.39mm" viewBox="0 0 500 500"><path d="M441.71,25H58.18C39.87,25,25,39.5,25,57.39V442.54C25,460.47,39.87,475,58.18,475H441.74c18.35,0,33.3-14.56,33.3-32.49V57.39C475,39.5,460.09,25,441.71,25ZM158.58,408.46H91.7V193.69h66.88ZM125.11,164.2a38.7,38.7,0,1,1-.06-77.4h0a38.7,38.7,0,0,1,0,77.4Zm283.5,244.28H341.9V304c0-24.89-.45-57-34.68-57-34.74,0-40.09,27.14-40.09,55.13V408.42H200.44V193.69h-.1l.1,0v0h63.92V223h.89c8.92-16.87,30.69-34.68,63.29-34.68,67.6,0,80.07,44.49,80.07,102.31Z" fill="#f3a009"/></svg>