<svg xmlns="http://www.w3.org/2000/svg" width="176.39mm" height="176.39mm" viewBox="0 0 500 500"><path d="M451,139.16a231.09,231.09,0,0,0-84.48-84.48Q313.16,23.54,250,23.54T133.48,54.68A231,231,0,0,0,49,139.16Q17.86,192.5,17.87,255.67q0,75.87,44.28,136.47T176.55,476q8.16,1.51,12.09-2.11a11.82,11.82,0,0,0,3.92-9.07q0-.9-.15-16.32t-.15-26.89l-6.95,1.2a89.5,89.5,0,0,1-16.78,1.06,127.77,127.77,0,0,1-21-2.12,46.87,46.87,0,0,1-20.26-9.06A38.36,38.36,0,0,1,114,394.11l-3-6.95a75.69,75.69,0,0,0-9.52-15.41q-6.51-8.47-13.15-11.49l-2.12-1.51a22.29,22.29,0,0,1-3.93-3.63,16.76,16.76,0,0,1-2.72-4.23c-.6-1.42-.1-2.58,1.52-3.49s4.53-1.35,8.76-1.35l6,.91q6,1.2,15,7.25a48.86,48.86,0,0,1,14.65,15.71q7,12.39,16.78,18.89t19.8,6.5a85.3,85.3,0,0,0,17.22-1.51,59.71,59.71,0,0,0,13.6-4.53q2.73-20.26,14.81-31.14a205.77,205.77,0,0,1-31-5.44,123.67,123.67,0,0,1-28.41-11.79A81.47,81.47,0,0,1,124,320.65q-9.67-12.09-15.87-31.74t-6.19-45.34q0-36.57,23.88-62.26-11.19-27.51,2.11-61.66,8.77-2.72,26,4.08t25.24,11.64q8,4.83,12.84,8.16a218.18,218.18,0,0,1,116.07,0l11.49-7.25a162.44,162.44,0,0,1,27.8-13.3q16-6,24.49-3.33,13.6,34.17,2.42,61.66Q398.1,207,398.11,243.58q0,25.68-6.2,45.48t-16,31.74a84.55,84.55,0,0,1-24.49,20.1A123.67,123.67,0,0,1,323,352.69a207,207,0,0,1-31,5.45q15.71,13.59,15.71,42.91v63.78a12,12,0,0,0,3.78,9.06q3.78,3.62,11.94,2.11,70.13-23.26,114.41-83.87t44.27-136.47Q482.12,192.51,451,139.16Z" fill="#f3a009"/></svg>