<?xml version="1.0" encoding="UTF-8"?><svg id="a" xmlns="http://www.w3.org/2000/svg" width="176.39mm" height="176.39mm" xmlns:xlink="http://www.w3.org/1999/xlink" viewBox="0 0 500 500"><defs><clipPath id="b"><rect x="-1170" y="632.65" width="841.89" height="595.28" fill="none"/></clipPath><clipPath id="c"><rect x="-1170" y="7.03" width="841.89" height="595.28" fill="none"/></clipPath><clipPath id="d"><rect x="-1170" y="-616.6" width="841.89" height="595.28" fill="none"/></clipPath><clipPath id="e"><rect x="-1170" y="-1240.22" width="841.89" height="595.28" fill="none"/></clipPath></defs><g clip-path="url(#b)"><path d="M265.51,1220.51c-38.3-10.94-147.16-43.71-190.23-63.63-279.42-129.15-346.52-401.16-403.39-716.57-4.92-27.29-165.17-40.8-196.37-40.8s-57.78,20.09-62.7,47.38c-56.87,315.41-257.64,580.83-537.06,709.98h0c-43.07,19.93-151.92,52.69-190.23,63.63-26.23,7.5-44.01,29.14-44,53.54,0,24.41,17.78,46.04,44.01,53.54,38.3,10.95,147.15,43.72,190.22,63.62,279.43,129.15,480.19,394.57,537.07,709.98,4.93,27.29,31.5,47.38,62.7,47.38s57.78-20.09,62.7-47.38c56.87-315.41,257.64-580.83,537.06-709.98,43.08-19.9,151.92-52.67,190.23-63.62,26.23-7.5,44-29.13,44-53.54,0-24.4-17.77-46.04-44-53.54Z" fill="#fff"/></g><g clip-path="url(#c)"><path d="M265.51,594.89c-38.3-10.94-147.16-43.71-190.23-63.63C-204.14,402.1-271.24,130.1-328.11-185.31c-4.92-27.29-165.17-40.8-196.37-40.8s-57.78,20.09-62.7,47.38c-56.87,315.41-257.64,580.83-537.06,709.98h0c-43.07,19.93-151.92,52.69-190.23,63.63-26.23,7.5-44.01,29.14-44,53.54,0,24.41,17.78,46.04,44.01,53.54,38.3,10.95,147.15,43.72,190.22,63.62,279.43,129.15,480.19,394.57,537.07,709.98,4.93,27.29,31.5,47.38,62.7,47.38s57.78-20.09,62.7-47.38c56.87-315.41,257.64-580.83,537.06-709.98,43.08-19.9,151.92-52.67,190.23-63.62,26.23-7.5,44-29.13,44-53.54,0-24.4-17.77-46.04-44-53.54Z" fill="#fff"/></g><g clip-path="url(#d)"><path d="M265.51-28.74c-38.3-10.94-147.16-43.71-190.23-63.63C-204.14-221.52-271.24-493.53-328.11-808.93c-4.92-27.29-165.17-40.8-196.37-40.8s-57.78,20.09-62.7,47.38c-56.87,315.41-257.64,580.83-537.06,709.98h0c-43.07,19.93-151.92,52.69-190.23,63.63-26.23,7.5-44.01,29.14-44,53.54,0,24.41,17.78,46.04,44.01,53.54,38.3,10.95,147.15,43.72,190.22,63.62,279.43,129.15,480.19,394.57,537.07,709.98,4.93,27.29,31.5,47.38,62.7,47.38s57.78-20.09,62.7-47.38C-404.91,536.54-204.14,271.12,75.28,141.96c43.08-19.9,151.92-52.67,190.23-63.62,26.23-7.5,44-29.13,44-53.54,0-24.4-17.77-46.04-44-53.54Z" fill="#fff"/></g><g clip-path="url(#e)"><path d="M265.51-652.36c-38.3-10.94-147.16-43.71-190.23-63.63-279.42-129.15-346.52-401.16-403.39-716.57-4.92-27.29-165.17-40.8-196.37-40.8s-57.78,20.09-62.7,47.38c-56.87,315.41-257.64,580.83-537.06,709.98h0c-43.07,19.93-151.92,52.69-190.23,63.63-26.23,7.5-44.01,29.14-44,53.54,0,24.41,17.78,46.04,44.01,53.54,38.3,10.95,147.15,43.72,190.22,63.62C-844.83-352.5-644.06-87.09-587.19,228.32c4.93,27.29,31.5,47.38,62.7,47.38s57.78-20.09,62.7-47.38C-404.91-87.09-204.14-352.5,75.28-481.66c43.08-19.9,151.92-52.67,190.23-63.62,26.23-7.5,44-29.13,44-53.54,0-24.4-17.77-46.04-44-53.54Z" fill="#fff"/></g><path d="M236.22,264.96c-2.82,8.73-11.25,33.55-16.38,43.38-33.24,63.71-101.56,109.49-182.74,122.45-7.03,1.12-12.2,7.18-12.2,14.3s5.17,13.17,12.2,14.3c1.08.17,2.12.43,3.2.61,18.31-3.21,59.14-14.31,57.44-14.91,65.13-23.22,118.37-67.03,147.77-123.36,1.42-2.71,2.94-6.09,4.49-9.78,1.54,3.69,3.07,7.06,4.48,9.78,27.01,51.77,74.2,92.92,132.22,117.27,23.12,6.16,46.11,12.95,70.06,15.25,4.78.46,9.58.63,14.38.7,2.44-2.61,3.94-6.07,3.94-9.87,0-7.11-5.17-13.17-12.2-14.3-81.18-12.97-149.49-58.74-182.74-122.45-5.12-9.82-13.56-34.64-16.38-43.38-1.93-5.98-7.5-10.03-13.78-10.03-6.28,0-11.85,4.05-13.78,10.03Z" fill="#f3a009"/><path d="M236.22,50.03c-2.82,8.73-11.25,33.55-16.38,43.38-33.24,63.71-101.56,109.49-182.74,122.45-7.03,1.12-12.2,7.18-12.2,14.3s5.17,13.17,12.2,14.3c1.08.17,2.12.43,3.2.61,18.31-3.21,59.14-14.31,57.44-14.91,65.13-23.22,118.37-67.03,147.77-123.36,1.42-2.71,2.94-6.09,4.49-9.78,1.54,3.69,3.07,7.06,4.48,9.78,27.01,51.77,74.2,92.92,132.22,117.27,23.12,6.16,46.11,12.95,70.06,15.25,4.78.46,9.58.63,14.38.7,2.44-2.61,3.94-6.07,3.94-9.87,0-7.11-5.17-13.17-12.2-14.3-81.18-12.97-149.49-58.74-182.74-122.45-5.12-9.82-13.56-34.64-16.38-43.38-1.93-5.98-7.5-10.03-13.78-10.03-6.28,0-11.85,4.05-13.78,10.03Z" fill="#f3a009"/></svg>