<svg xmlns="http://www.w3.org/2000/svg" width="176.39mm" height="176.39mm" viewBox="0 0 500 500"><path d="M357.1,251C353.59,221.61,328,224.79,328,224.79,301.72,229.37,302.29,251,302.29,251Z" fill="#f3a009"/><path d="M218.53,212.13v-.51s.78-9.78-6.76-15.31a20.82,20.82,0,0,0-12.28-3.84h-41.2v38.29h39.9C209.29,230.76,218.53,222.59,218.53,212.13Z" fill="#f3a009"/><path d="M223.36,277.88s.8-10.5-7.31-17.71c-3.57-3.18-8.48-4.45-13.26-4.45h-44.5V300H201.7a21.63,21.63,0,0,0,21.69-21.56h0A5.83,5.83,0,0,0,223.36,277.88Z" fill="#f3a009"/><path d="M397.1,17.87H102.9a85,85,0,0,0-85,85V397.1a85,85,0,0,0,85,85H397.1a85,85,0,0,0,85-85V102.9A85,85,0,0,0,397.1,17.87ZM294.39,168.32h69.72v19.79H294.39ZM210,330.18H119V163.49h93.61s38.25.56,40.34,40.33c0,0,2.59,29.23-22.52,33.79,0,0,30.81,4,28.92,45.38C259.37,283,259.84,328.58,210,330.18ZM329.26,330c-47.83.46-60.21-40.41-60.21-40.41-5.25-18.73,0-43.62,0-43.62,14.07-49.18,61.87-45.9,61.87-45.9,39.73.83,50.68,27.87,50.68,27.87,10.47,15.75,7.09,45.43,7.09,45.43H301.46c.46,29,27.78,29.46,27.78,29.46,27.1,1.6,28.62-17.35,28.62-17.35h31.37C387.48,335.47,329.26,330,329.26,330Z" fill="#f3a009"/></svg>