<svg xmlns="http://www.w3.org/2000/svg" width="176.39mm" height="176.39mm" viewBox="0 0 500 500"><path d="M431.36,236.13c-8.79-2.84-33.78-11.33-43.67-16.49-64.15-33.47-110.24-102.26-123.29-184a14.58,14.58,0,0,0-28.8,0c-13,81.73-59.14,150.52-123.29,184h0c-9.89,5.16-34.88,13.65-43.67,16.49a14.58,14.58,0,0,0,0,27.75c8.79,2.83,33.78,11.33,43.67,16.48,64.15,33.47,110.24,102.26,123.29,184a14.58,14.58,0,0,0,28.8,0c13.05-81.73,59.14-150.52,123.29-184,9.89-5.15,34.88-13.65,43.67-16.48a14.58,14.58,0,0,0,0-27.75Z" fill="#f3a009"/></svg>