<svg xmlns="http://www.w3.org/2000/svg" width="176.39mm" height="176.39mm" viewBox="0 0 500 500"><path d="M224.6,17.94c7.54,0,16,0,25.4,0,75.62,0,84.58.27,114.44,1.62,27.61,1.27,42.6,5.88,52.58,9.76A87.59,87.59,0,0,1,449.57,50.5a87.93,87.93,0,0,1,21.19,32.57c3.88,10,8.49,25,9.75,52.57,1.36,29.85,1.65,38.82,1.65,114.4s-.29,84.55-1.65,114.4c-1.26,27.61-5.87,42.6-9.75,52.57A93.89,93.89,0,0,1,417,470.72c-10,3.9-25,8.5-52.58,9.76-29.85,1.36-38.82,1.65-114.44,1.65s-84.58-.29-114.43-1.65C108,479.21,93,474.59,83,470.72a87.78,87.78,0,0,1-32.57-21.18A87.73,87.73,0,0,1,29.22,417c-3.88-10-8.5-25-9.76-52.57C18.11,334.56,17.84,325.6,17.84,250s.27-84.55,1.62-114.4C20.73,108,25.34,93,29.22,83A87.73,87.73,0,0,1,50.41,50.42,87.83,87.83,0,0,1,83,29.22c10-3.89,25-8.49,52.59-9.76,26.12-1.18,36.24-1.53,89-1.59ZM401.17,65a34,34,0,1,0,34,34A34,34,0,0,0,401.17,65ZM250,104.67A145.42,145.42,0,1,0,395.41,250.1,145.43,145.43,0,0,0,250,104.67Z" fill="#f3a009" fill-rule="evenodd"/><path d="M250,155.7a94.4,94.4,0,1,1-94.4,94.4A94.4,94.4,0,0,1,250,155.7Z" fill="#f3a009" fill-rule="evenodd"/></svg>